<?xml version="1.0" encoding="utf-8"?>
<!-- Generator: Adobe Illustrator 19.0.0, SVG Export Plug-In . SVG Version: 6.00 Build 0)  -->
<svg version="1.1" id="Calque_1" focusable="false" xmlns="http://www.w3.org/2000/svg" xmlns:xlink="http://www.w3.org/1999/xlink"
	 x="0px" y="0px" viewBox="-81 141 448 512" style="enable-background:new -81 141 448 512;" xml:space="preserve">
<style type="text/css">
	.st0{fill:#FFFFFF;}
</style>
<path class="st0" d="M332.1,363.5l22.2,22.2c9.4,9.4,9.4,24.6,0,33.9L160,614c-9.4,9.4-24.6,9.4-33.9,0L-68.3,419.6
	c-9.4-9.4-9.4-24.6,0-33.9l22.2-22.2c9.5-9.5,25-9.3,34.3,0.4L103,484.4V197c0-13.3,10.7-24,24-24h32c13.3,0,24,10.7,24,24v287.4
	l114.8-120.5C307.1,354.1,322.6,353.9,332.1,363.5L332.1,363.5z"/>
</svg>
